G75*
G70*
%OFA0B0*%
%FSLAX24Y24*%
%IPPOS*%
%LPD*%
%AMOC8*
5,1,8,0,0,1.08239X$1,22.5*
%
%ADD10OC8,0.0520*%
%ADD11C,0.0990*%
%ADD12C,0.0780*%
%ADD13C,0.0520*%
%ADD14C,0.0160*%
D10*
X014550Y012180D03*
X015550Y012180D03*
X017550Y012180D03*
X018550Y012180D03*
X018550Y015180D03*
X017550Y015180D03*
X013550Y013680D03*
X013550Y016680D03*
X014550Y018180D03*
X015550Y018180D03*
X017550Y018180D03*
X018550Y018180D03*
X039550Y015680D03*
X039550Y014680D03*
X039550Y013180D03*
X039550Y010180D03*
D11*
X049555Y011900D02*
X050545Y011900D01*
X050545Y013460D02*
X049555Y013460D01*
X049555Y017400D02*
X050545Y017400D01*
X050545Y018960D02*
X049555Y018960D01*
D12*
X046050Y019290D02*
X046050Y020070D01*
X043100Y020070D02*
X043100Y019290D01*
X046050Y012200D02*
X046050Y011420D01*
X043100Y010820D02*
X043100Y010040D01*
D13*
X042810Y021180D02*
X042290Y021180D01*
X046290Y021180D02*
X046810Y021180D01*
D14*
X012050Y021570D02*
X012050Y009180D01*
X052050Y009180D01*
X052050Y021570D01*
X046966Y021570D01*
X047048Y021536D01*
X047164Y021420D01*
X050098Y021420D01*
X050186Y021383D01*
X050253Y021316D01*
X050290Y021228D01*
X050290Y019615D01*
X050675Y019615D01*
X050916Y019515D01*
X051100Y019331D01*
X051200Y019090D01*
X051200Y018830D01*
X051100Y018589D01*
X050916Y018405D01*
X050675Y018305D01*
X049425Y018305D01*
X049184Y018405D01*
X049000Y018589D01*
X048900Y018830D01*
X048900Y019090D01*
X049000Y019331D01*
X049184Y019515D01*
X049425Y019615D01*
X049810Y019615D01*
X049810Y020940D01*
X047164Y020940D01*
X047048Y020824D01*
X046894Y020760D01*
X046790Y020760D01*
X046790Y019632D01*
X046753Y019544D01*
X046686Y019477D01*
X046600Y019441D01*
X046600Y019181D01*
X046516Y018978D01*
X046362Y018824D01*
X048902Y018824D01*
X048900Y018983D02*
X046518Y018983D01*
X046584Y019141D02*
X048921Y019141D01*
X048987Y019300D02*
X046600Y019300D01*
X046641Y019458D02*
X049127Y019458D01*
X049810Y019617D02*
X046783Y019617D01*
X046790Y019775D02*
X049810Y019775D01*
X049810Y019934D02*
X046790Y019934D01*
X046790Y020092D02*
X049810Y020092D01*
X049810Y020251D02*
X046790Y020251D01*
X046790Y020409D02*
X049810Y020409D01*
X049810Y020568D02*
X046790Y020568D01*
X046790Y020726D02*
X049810Y020726D01*
X049810Y020885D02*
X047108Y020885D01*
X046550Y021180D02*
X046550Y019680D01*
X046050Y019680D01*
X045500Y019617D02*
X043670Y019617D01*
X043670Y019630D02*
X043150Y019630D01*
X043150Y019730D01*
X043050Y019730D01*
X043050Y020639D01*
X042967Y020626D01*
X042881Y020598D01*
X042801Y020558D01*
X042729Y020505D01*
X042665Y020441D01*
X042612Y020369D01*
X042572Y020289D01*
X042544Y020203D01*
X042530Y020115D01*
X042530Y019730D01*
X043050Y019730D01*
X043050Y019630D01*
X042530Y019630D01*
X042530Y019245D01*
X042544Y019157D01*
X042572Y019071D01*
X042612Y018991D01*
X042665Y018919D01*
X042729Y018855D01*
X042801Y018802D01*
X042881Y018762D01*
X042967Y018734D01*
X043050Y018721D01*
X043050Y019630D01*
X043150Y019630D01*
X043150Y018721D01*
X043233Y018734D01*
X043319Y018762D01*
X043399Y018802D01*
X043471Y018855D01*
X043535Y018919D01*
X043588Y018991D01*
X043628Y019071D01*
X043656Y019157D01*
X043670Y019245D01*
X043670Y019630D01*
X043670Y019730D02*
X043670Y020115D01*
X043656Y020203D01*
X043628Y020289D01*
X043588Y020369D01*
X043535Y020441D01*
X043471Y020505D01*
X043399Y020558D01*
X043319Y020598D01*
X043233Y020626D01*
X043150Y020639D01*
X043150Y019730D01*
X043670Y019730D01*
X043670Y019775D02*
X045500Y019775D01*
X045500Y019934D02*
X043670Y019934D01*
X043670Y020092D02*
X045500Y020092D01*
X045500Y020179D02*
X045500Y019181D01*
X045584Y018978D01*
X045738Y018824D01*
X043428Y018824D01*
X043581Y018983D02*
X045582Y018983D01*
X045516Y019141D02*
X043651Y019141D01*
X043670Y019300D02*
X045500Y019300D01*
X045500Y019458D02*
X043670Y019458D01*
X043150Y019458D02*
X043050Y019458D01*
X043050Y019300D02*
X043150Y019300D01*
X043150Y019141D02*
X043050Y019141D01*
X043050Y018983D02*
X043150Y018983D01*
X043150Y018824D02*
X043050Y018824D01*
X042772Y018824D02*
X023290Y018824D01*
X023290Y018666D02*
X048968Y018666D01*
X049082Y018507D02*
X023290Y018507D01*
X023290Y018349D02*
X049320Y018349D01*
X049425Y018055D02*
X049184Y017955D01*
X049000Y017771D01*
X048900Y017530D01*
X048900Y017270D01*
X049000Y017029D01*
X049184Y016845D01*
X049425Y016745D01*
X050675Y016745D01*
X050916Y016845D01*
X051100Y017029D01*
X051155Y017160D01*
X051231Y017160D01*
X051310Y017081D01*
X051310Y011279D01*
X050451Y010420D01*
X043650Y010420D01*
X043650Y010929D01*
X043566Y011132D01*
X043412Y011286D01*
X043209Y011370D01*
X042991Y011370D01*
X042788Y011286D01*
X042634Y011132D01*
X042550Y010929D01*
X042550Y009931D01*
X042634Y009728D01*
X042788Y009574D01*
X042991Y009490D01*
X043209Y009490D01*
X043412Y009574D01*
X043566Y009728D01*
X043650Y009931D01*
X043650Y009940D01*
X050598Y009940D01*
X050686Y009977D01*
X050753Y010044D01*
X051753Y011044D01*
X051790Y011132D01*
X051790Y017228D01*
X051753Y017316D01*
X051686Y017383D01*
X051466Y017603D01*
X051378Y017640D01*
X051155Y017640D01*
X051100Y017771D01*
X050916Y017955D01*
X050675Y018055D01*
X049425Y018055D01*
X049368Y018032D02*
X023290Y018032D01*
X023290Y018190D02*
X052050Y018190D01*
X052050Y018032D02*
X050732Y018032D01*
X050998Y017873D02*
X052050Y017873D01*
X052050Y017715D02*
X051124Y017715D01*
X051330Y017400D02*
X051550Y017180D01*
X051550Y011180D01*
X050550Y010180D01*
X043350Y010180D01*
X043100Y010430D01*
X043650Y010424D02*
X050454Y010424D01*
X050613Y010582D02*
X043650Y010582D01*
X043650Y010741D02*
X050771Y010741D01*
X050930Y010899D02*
X046229Y010899D01*
X046159Y010870D02*
X046362Y010954D01*
X046516Y011108D01*
X046600Y011311D01*
X046600Y012309D01*
X046516Y012512D01*
X046362Y012666D01*
X046159Y012750D01*
X045941Y012750D01*
X045738Y012666D01*
X045584Y012512D01*
X045500Y012309D01*
X045500Y012050D01*
X023290Y012050D01*
X023290Y019728D01*
X023253Y019816D01*
X023186Y019883D01*
X023098Y019920D01*
X017502Y019920D01*
X017414Y019883D01*
X017347Y019816D01*
X017310Y019728D01*
X017310Y018534D01*
X017130Y018354D01*
X017130Y018006D01*
X017310Y017826D01*
X017310Y015534D01*
X017130Y015354D01*
X017130Y015006D01*
X017310Y014826D01*
X017310Y012534D01*
X017196Y012420D01*
X016790Y012420D01*
X016790Y019228D01*
X016753Y019316D01*
X016686Y019383D01*
X016598Y019420D01*
X014502Y019420D01*
X014414Y019383D01*
X014347Y019316D01*
X014310Y019228D01*
X014310Y018534D01*
X014130Y018354D01*
X014130Y018006D01*
X014310Y017826D01*
X014310Y012534D01*
X014130Y012354D01*
X014130Y012006D01*
X014376Y011760D01*
X014724Y011760D01*
X014970Y012006D01*
X014970Y012354D01*
X014790Y012534D01*
X014790Y017826D01*
X014970Y018006D01*
X014970Y018354D01*
X014790Y018534D01*
X014790Y018940D01*
X016310Y018940D01*
X016310Y012132D01*
X016347Y012044D01*
X016414Y011977D01*
X016502Y011940D01*
X017196Y011940D01*
X017216Y011920D01*
X016290Y011920D01*
X016290Y018228D01*
X016253Y018316D01*
X016186Y018383D01*
X016098Y018420D01*
X015904Y018420D01*
X015724Y018600D01*
X015376Y018600D01*
X015130Y018354D01*
X015130Y018006D01*
X015310Y017826D01*
X015310Y017779D01*
X014914Y017383D01*
X014847Y017316D01*
X014810Y017228D01*
X014810Y012632D01*
X014847Y012544D01*
X015130Y012261D01*
X015130Y012006D01*
X015310Y011826D01*
X015310Y010920D01*
X013790Y010920D01*
X013790Y013326D01*
X013970Y013506D01*
X013970Y013854D01*
X013724Y014100D01*
X013376Y014100D01*
X013130Y013854D01*
X013130Y013506D01*
X013310Y013326D01*
X013310Y010632D01*
X013347Y010544D01*
X013414Y010477D01*
X013502Y010440D01*
X015598Y010440D01*
X015686Y010477D01*
X015753Y010544D01*
X015790Y010632D01*
X015790Y011826D01*
X015810Y011846D01*
X015810Y011632D01*
X015847Y011544D01*
X015914Y011477D01*
X016002Y011440D01*
X018598Y011440D01*
X018686Y011477D01*
X018753Y011544D01*
X018790Y011632D01*
X018790Y011826D01*
X018970Y012006D01*
X018970Y012354D01*
X018790Y012534D01*
X018790Y014826D01*
X018970Y015006D01*
X018970Y015354D01*
X018790Y015534D01*
X018790Y017826D01*
X018970Y018006D01*
X018970Y018354D01*
X018724Y018600D01*
X018376Y018600D01*
X018130Y018354D01*
X018130Y018006D01*
X018310Y017826D01*
X018310Y015534D01*
X018130Y015354D01*
X018130Y015006D01*
X018310Y014826D01*
X018310Y012534D01*
X018130Y012354D01*
X018130Y012006D01*
X018216Y011920D01*
X017884Y011920D01*
X017970Y012006D01*
X017970Y012354D01*
X017790Y012534D01*
X017790Y014826D01*
X017970Y015006D01*
X017970Y015354D01*
X017790Y015534D01*
X017790Y017826D01*
X017970Y018006D01*
X017970Y018354D01*
X017790Y018534D01*
X017790Y019440D01*
X022810Y019440D01*
X022810Y011762D01*
X022847Y011674D01*
X022914Y011607D01*
X023002Y011570D01*
X039310Y011570D01*
X039310Y010534D01*
X039130Y010354D01*
X039130Y010006D01*
X039376Y009760D01*
X039724Y009760D01*
X039970Y010006D01*
X039970Y010354D01*
X039790Y010534D01*
X039790Y011570D01*
X045500Y011570D01*
X045500Y011311D01*
X045584Y011108D01*
X045738Y010954D01*
X045941Y010870D01*
X046159Y010870D01*
X045871Y010899D02*
X043650Y010899D01*
X043597Y011058D02*
X045635Y011058D01*
X045539Y011216D02*
X043482Y011216D01*
X042718Y011216D02*
X039790Y011216D01*
X039790Y011058D02*
X042603Y011058D01*
X042550Y010899D02*
X039790Y010899D01*
X039790Y010741D02*
X042550Y010741D01*
X042550Y010582D02*
X039790Y010582D01*
X039900Y010424D02*
X042550Y010424D01*
X042550Y010265D02*
X039970Y010265D01*
X039970Y010107D02*
X042550Y010107D01*
X042550Y009948D02*
X039912Y009948D01*
X039753Y009790D02*
X042608Y009790D01*
X042731Y009631D02*
X012050Y009631D01*
X012050Y009473D02*
X052050Y009473D01*
X052050Y009631D02*
X043469Y009631D01*
X043592Y009790D02*
X052050Y009790D01*
X052050Y009948D02*
X050617Y009948D01*
X050816Y010107D02*
X052050Y010107D01*
X052050Y010265D02*
X050974Y010265D01*
X051133Y010424D02*
X052050Y010424D01*
X052050Y010582D02*
X051291Y010582D01*
X051450Y010741D02*
X052050Y010741D01*
X052050Y010899D02*
X051608Y010899D01*
X051759Y011058D02*
X052050Y011058D01*
X052050Y011216D02*
X051790Y011216D01*
X051790Y011375D02*
X052050Y011375D01*
X052050Y011533D02*
X051790Y011533D01*
X051790Y011692D02*
X052050Y011692D01*
X052050Y011850D02*
X051790Y011850D01*
X051790Y012009D02*
X052050Y012009D01*
X052050Y012167D02*
X051790Y012167D01*
X051790Y012326D02*
X052050Y012326D01*
X052050Y012484D02*
X051790Y012484D01*
X051790Y012643D02*
X052050Y012643D01*
X052050Y012801D02*
X051790Y012801D01*
X051790Y012960D02*
X052050Y012960D01*
X052050Y013118D02*
X051790Y013118D01*
X051790Y013277D02*
X052050Y013277D01*
X052050Y013435D02*
X051790Y013435D01*
X051790Y013594D02*
X052050Y013594D01*
X052050Y013752D02*
X051790Y013752D01*
X051790Y013911D02*
X052050Y013911D01*
X052050Y014069D02*
X051790Y014069D01*
X051790Y014228D02*
X052050Y014228D01*
X052050Y014386D02*
X051790Y014386D01*
X051790Y014545D02*
X052050Y014545D01*
X052050Y014703D02*
X051790Y014703D01*
X051790Y014862D02*
X052050Y014862D01*
X052050Y015020D02*
X051790Y015020D01*
X051790Y015179D02*
X052050Y015179D01*
X052050Y015337D02*
X051790Y015337D01*
X051790Y015496D02*
X052050Y015496D01*
X052050Y015654D02*
X051790Y015654D01*
X051790Y015813D02*
X052050Y015813D01*
X052050Y015971D02*
X051790Y015971D01*
X051790Y016130D02*
X052050Y016130D01*
X052050Y016288D02*
X051790Y016288D01*
X051790Y016447D02*
X052050Y016447D01*
X052050Y016605D02*
X051790Y016605D01*
X051790Y016764D02*
X052050Y016764D01*
X052050Y016922D02*
X051790Y016922D01*
X051790Y017081D02*
X052050Y017081D01*
X052050Y017239D02*
X051785Y017239D01*
X051672Y017398D02*
X052050Y017398D01*
X052050Y017556D02*
X051513Y017556D01*
X051330Y017400D02*
X050050Y017400D01*
X049102Y017873D02*
X023290Y017873D01*
X023290Y017715D02*
X048976Y017715D01*
X048911Y017556D02*
X023290Y017556D01*
X023290Y017398D02*
X048900Y017398D01*
X048913Y017239D02*
X023290Y017239D01*
X023290Y017081D02*
X048978Y017081D01*
X049107Y016922D02*
X023290Y016922D01*
X023290Y016764D02*
X049380Y016764D01*
X050720Y016764D02*
X051310Y016764D01*
X051310Y016922D02*
X050993Y016922D01*
X051122Y017081D02*
X051310Y017081D01*
X051310Y016605D02*
X023290Y016605D01*
X023290Y016447D02*
X051310Y016447D01*
X051310Y016288D02*
X023290Y016288D01*
X023290Y016130D02*
X051310Y016130D01*
X051310Y015971D02*
X039881Y015971D01*
X039990Y015862D02*
X039732Y016120D01*
X039550Y016120D01*
X039550Y015680D01*
X023550Y015680D01*
X023550Y020180D01*
X013550Y020180D01*
X013550Y016680D01*
X013550Y016680D01*
X013550Y017120D01*
X013732Y017120D01*
X013990Y016862D01*
X013990Y016680D01*
X013550Y016680D01*
X013550Y016680D01*
X013550Y016680D01*
X013110Y016680D01*
X013110Y016862D01*
X013368Y017120D01*
X013550Y017120D01*
X013550Y016680D01*
X013990Y016680D01*
X013990Y016498D01*
X013732Y016240D01*
X013550Y016240D01*
X013550Y016680D01*
X013550Y016680D01*
X013110Y016680D01*
X013110Y016498D01*
X013368Y016240D01*
X013550Y016240D01*
X013550Y016680D01*
X013550Y016605D02*
X013550Y016605D01*
X013550Y016447D02*
X013550Y016447D01*
X013550Y016288D02*
X013550Y016288D01*
X013780Y016288D02*
X014310Y016288D01*
X014310Y016130D02*
X012050Y016130D01*
X012050Y016288D02*
X013320Y016288D01*
X013161Y016447D02*
X012050Y016447D01*
X012050Y016605D02*
X013110Y016605D01*
X013110Y016764D02*
X012050Y016764D01*
X012050Y016922D02*
X013170Y016922D01*
X013328Y017081D02*
X012050Y017081D01*
X012050Y017239D02*
X014310Y017239D01*
X014310Y017081D02*
X013772Y017081D01*
X013550Y017081D02*
X013550Y017081D01*
X013550Y016922D02*
X013550Y016922D01*
X013550Y016764D02*
X013550Y016764D01*
X013930Y016922D02*
X014310Y016922D01*
X014310Y016764D02*
X013990Y016764D01*
X013990Y016605D02*
X014310Y016605D01*
X014310Y016447D02*
X013939Y016447D01*
X014310Y015971D02*
X012050Y015971D01*
X012050Y015813D02*
X014310Y015813D01*
X014310Y015654D02*
X012050Y015654D01*
X012050Y015496D02*
X014310Y015496D01*
X014310Y015337D02*
X012050Y015337D01*
X012050Y015179D02*
X014310Y015179D01*
X014310Y015020D02*
X012050Y015020D01*
X012050Y014862D02*
X014310Y014862D01*
X014310Y014703D02*
X012050Y014703D01*
X012050Y014545D02*
X014310Y014545D01*
X014310Y014386D02*
X012050Y014386D01*
X012050Y014228D02*
X014310Y014228D01*
X014310Y014069D02*
X013755Y014069D01*
X013913Y013911D02*
X014310Y013911D01*
X014310Y013752D02*
X013970Y013752D01*
X013970Y013594D02*
X014310Y013594D01*
X014310Y013435D02*
X013899Y013435D01*
X013790Y013277D02*
X014310Y013277D01*
X014310Y013118D02*
X013790Y013118D01*
X013790Y012960D02*
X014310Y012960D01*
X014310Y012801D02*
X013790Y012801D01*
X013790Y012643D02*
X014310Y012643D01*
X014260Y012484D02*
X013790Y012484D01*
X013790Y012326D02*
X014130Y012326D01*
X014130Y012167D02*
X013790Y012167D01*
X013790Y012009D02*
X014130Y012009D01*
X014286Y011850D02*
X013790Y011850D01*
X013790Y011692D02*
X015310Y011692D01*
X015310Y011533D02*
X013790Y011533D01*
X013790Y011375D02*
X015310Y011375D01*
X015310Y011216D02*
X013790Y011216D01*
X013790Y011058D02*
X015310Y011058D01*
X015550Y010680D02*
X015550Y012180D01*
X015050Y012680D01*
X015050Y017180D01*
X015550Y017680D01*
X015550Y018180D01*
X016050Y018180D01*
X016050Y011680D01*
X018550Y011680D01*
X018550Y012180D01*
X018550Y015180D01*
X018550Y018180D01*
X018970Y018190D02*
X022810Y018190D01*
X022810Y018032D02*
X018970Y018032D01*
X018837Y017873D02*
X022810Y017873D01*
X022810Y017715D02*
X018790Y017715D01*
X018790Y017556D02*
X022810Y017556D01*
X022810Y017398D02*
X018790Y017398D01*
X018790Y017239D02*
X022810Y017239D01*
X022810Y017081D02*
X018790Y017081D01*
X018790Y016922D02*
X022810Y016922D01*
X022810Y016764D02*
X018790Y016764D01*
X018790Y016605D02*
X022810Y016605D01*
X022810Y016447D02*
X018790Y016447D01*
X018790Y016288D02*
X022810Y016288D01*
X022810Y016130D02*
X018790Y016130D01*
X018790Y015971D02*
X022810Y015971D01*
X022810Y015813D02*
X018790Y015813D01*
X018790Y015654D02*
X022810Y015654D01*
X022810Y015496D02*
X018828Y015496D01*
X018970Y015337D02*
X022810Y015337D01*
X022810Y015179D02*
X018970Y015179D01*
X018970Y015020D02*
X022810Y015020D01*
X022810Y014862D02*
X018825Y014862D01*
X018790Y014703D02*
X022810Y014703D01*
X022810Y014545D02*
X018790Y014545D01*
X018790Y014386D02*
X022810Y014386D01*
X022810Y014228D02*
X018790Y014228D01*
X018790Y014069D02*
X022810Y014069D01*
X022810Y013911D02*
X018790Y013911D01*
X018790Y013752D02*
X022810Y013752D01*
X022810Y013594D02*
X018790Y013594D01*
X018790Y013435D02*
X022810Y013435D01*
X022810Y013277D02*
X018790Y013277D01*
X018790Y013118D02*
X022810Y013118D01*
X022810Y012960D02*
X018790Y012960D01*
X018790Y012801D02*
X022810Y012801D01*
X022810Y012643D02*
X018790Y012643D01*
X018840Y012484D02*
X022810Y012484D01*
X022810Y012326D02*
X018970Y012326D01*
X018970Y012167D02*
X022810Y012167D01*
X022810Y012009D02*
X018970Y012009D01*
X018814Y011850D02*
X022810Y011850D01*
X022839Y011692D02*
X018790Y011692D01*
X018742Y011533D02*
X039310Y011533D01*
X039310Y011375D02*
X015790Y011375D01*
X015790Y011533D02*
X015858Y011533D01*
X015810Y011692D02*
X015790Y011692D01*
X015286Y011850D02*
X014814Y011850D01*
X014970Y012009D02*
X015130Y012009D01*
X015130Y012167D02*
X014970Y012167D01*
X014970Y012326D02*
X015065Y012326D01*
X014907Y012484D02*
X014840Y012484D01*
X014810Y012643D02*
X014790Y012643D01*
X014790Y012801D02*
X014810Y012801D01*
X014810Y012960D02*
X014790Y012960D01*
X014790Y013118D02*
X014810Y013118D01*
X014810Y013277D02*
X014790Y013277D01*
X014790Y013435D02*
X014810Y013435D01*
X014810Y013594D02*
X014790Y013594D01*
X014790Y013752D02*
X014810Y013752D01*
X014810Y013911D02*
X014790Y013911D01*
X014790Y014069D02*
X014810Y014069D01*
X014810Y014228D02*
X014790Y014228D01*
X014790Y014386D02*
X014810Y014386D01*
X014810Y014545D02*
X014790Y014545D01*
X014790Y014703D02*
X014810Y014703D01*
X014810Y014862D02*
X014790Y014862D01*
X014790Y015020D02*
X014810Y015020D01*
X014810Y015179D02*
X014790Y015179D01*
X014790Y015337D02*
X014810Y015337D01*
X014810Y015496D02*
X014790Y015496D01*
X014790Y015654D02*
X014810Y015654D01*
X014810Y015813D02*
X014790Y015813D01*
X014790Y015971D02*
X014810Y015971D01*
X014810Y016130D02*
X014790Y016130D01*
X014790Y016288D02*
X014810Y016288D01*
X014810Y016447D02*
X014790Y016447D01*
X014790Y016605D02*
X014810Y016605D01*
X014810Y016764D02*
X014790Y016764D01*
X014790Y016922D02*
X014810Y016922D01*
X014810Y017081D02*
X014790Y017081D01*
X014790Y017239D02*
X014815Y017239D01*
X014790Y017398D02*
X014928Y017398D01*
X014790Y017556D02*
X015087Y017556D01*
X015245Y017715D02*
X014790Y017715D01*
X014837Y017873D02*
X015263Y017873D01*
X015130Y018032D02*
X014970Y018032D01*
X014970Y018190D02*
X015130Y018190D01*
X015130Y018349D02*
X014970Y018349D01*
X014817Y018507D02*
X015283Y018507D01*
X014790Y018666D02*
X016310Y018666D01*
X016310Y018824D02*
X014790Y018824D01*
X014550Y019180D02*
X014550Y018180D01*
X014550Y012180D01*
X013310Y012167D02*
X012050Y012167D01*
X012050Y012009D02*
X013310Y012009D01*
X013310Y011850D02*
X012050Y011850D01*
X012050Y011692D02*
X013310Y011692D01*
X013310Y011533D02*
X012050Y011533D01*
X012050Y011375D02*
X013310Y011375D01*
X013310Y011216D02*
X012050Y011216D01*
X012050Y011058D02*
X013310Y011058D01*
X013310Y010899D02*
X012050Y010899D01*
X012050Y010741D02*
X013310Y010741D01*
X013331Y010582D02*
X012050Y010582D01*
X012050Y010424D02*
X039200Y010424D01*
X039130Y010265D02*
X012050Y010265D01*
X012050Y010107D02*
X039130Y010107D01*
X039188Y009948D02*
X012050Y009948D01*
X012050Y009790D02*
X039347Y009790D01*
X039550Y010180D02*
X039550Y011810D01*
X023050Y011810D01*
X023050Y019680D01*
X017550Y019680D01*
X017550Y018180D01*
X017550Y015180D01*
X017550Y012180D01*
X016550Y012180D01*
X016550Y019180D01*
X014550Y019180D01*
X014340Y019300D02*
X012050Y019300D01*
X012050Y019458D02*
X017310Y019458D01*
X017310Y019300D02*
X016760Y019300D01*
X016790Y019141D02*
X017310Y019141D01*
X017310Y018983D02*
X016790Y018983D01*
X016790Y018824D02*
X017310Y018824D01*
X017310Y018666D02*
X016790Y018666D01*
X016790Y018507D02*
X017283Y018507D01*
X017130Y018349D02*
X016790Y018349D01*
X016790Y018190D02*
X017130Y018190D01*
X017130Y018032D02*
X016790Y018032D01*
X016790Y017873D02*
X017263Y017873D01*
X017310Y017715D02*
X016790Y017715D01*
X016790Y017556D02*
X017310Y017556D01*
X017310Y017398D02*
X016790Y017398D01*
X016790Y017239D02*
X017310Y017239D01*
X017310Y017081D02*
X016790Y017081D01*
X016790Y016922D02*
X017310Y016922D01*
X017310Y016764D02*
X016790Y016764D01*
X016790Y016605D02*
X017310Y016605D01*
X017310Y016447D02*
X016790Y016447D01*
X016790Y016288D02*
X017310Y016288D01*
X017310Y016130D02*
X016790Y016130D01*
X016790Y015971D02*
X017310Y015971D01*
X017310Y015813D02*
X016790Y015813D01*
X016790Y015654D02*
X017310Y015654D01*
X017272Y015496D02*
X016790Y015496D01*
X016790Y015337D02*
X017130Y015337D01*
X017130Y015179D02*
X016790Y015179D01*
X016790Y015020D02*
X017130Y015020D01*
X017275Y014862D02*
X016790Y014862D01*
X016790Y014703D02*
X017310Y014703D01*
X017310Y014545D02*
X016790Y014545D01*
X016790Y014386D02*
X017310Y014386D01*
X017310Y014228D02*
X016790Y014228D01*
X016790Y014069D02*
X017310Y014069D01*
X017310Y013911D02*
X016790Y013911D01*
X016790Y013752D02*
X017310Y013752D01*
X017310Y013594D02*
X016790Y013594D01*
X016790Y013435D02*
X017310Y013435D01*
X017310Y013277D02*
X016790Y013277D01*
X016790Y013118D02*
X017310Y013118D01*
X017310Y012960D02*
X016790Y012960D01*
X016790Y012801D02*
X017310Y012801D01*
X017310Y012643D02*
X016790Y012643D01*
X016790Y012484D02*
X017260Y012484D01*
X017790Y012643D02*
X018310Y012643D01*
X018310Y012801D02*
X017790Y012801D01*
X017790Y012960D02*
X018310Y012960D01*
X018310Y013118D02*
X017790Y013118D01*
X017790Y013277D02*
X018310Y013277D01*
X018310Y013435D02*
X017790Y013435D01*
X017790Y013594D02*
X018310Y013594D01*
X018310Y013752D02*
X017790Y013752D01*
X017790Y013911D02*
X018310Y013911D01*
X018310Y014069D02*
X017790Y014069D01*
X017790Y014228D02*
X018310Y014228D01*
X018310Y014386D02*
X017790Y014386D01*
X017790Y014545D02*
X018310Y014545D01*
X018310Y014703D02*
X017790Y014703D01*
X017825Y014862D02*
X018275Y014862D01*
X018130Y015020D02*
X017970Y015020D01*
X017970Y015179D02*
X018130Y015179D01*
X018130Y015337D02*
X017970Y015337D01*
X017828Y015496D02*
X018272Y015496D01*
X018310Y015654D02*
X017790Y015654D01*
X017790Y015813D02*
X018310Y015813D01*
X018310Y015971D02*
X017790Y015971D01*
X017790Y016130D02*
X018310Y016130D01*
X018310Y016288D02*
X017790Y016288D01*
X017790Y016447D02*
X018310Y016447D01*
X018310Y016605D02*
X017790Y016605D01*
X017790Y016764D02*
X018310Y016764D01*
X018310Y016922D02*
X017790Y016922D01*
X017790Y017081D02*
X018310Y017081D01*
X018310Y017239D02*
X017790Y017239D01*
X017790Y017398D02*
X018310Y017398D01*
X018310Y017556D02*
X017790Y017556D01*
X017790Y017715D02*
X018310Y017715D01*
X018263Y017873D02*
X017837Y017873D01*
X017970Y018032D02*
X018130Y018032D01*
X018130Y018190D02*
X017970Y018190D01*
X017970Y018349D02*
X018130Y018349D01*
X018283Y018507D02*
X017817Y018507D01*
X017790Y018666D02*
X022810Y018666D01*
X022810Y018824D02*
X017790Y018824D01*
X017790Y018983D02*
X022810Y018983D01*
X022810Y019141D02*
X017790Y019141D01*
X017790Y019300D02*
X022810Y019300D01*
X023290Y019300D02*
X042530Y019300D01*
X042530Y019458D02*
X023290Y019458D01*
X023290Y019617D02*
X042530Y019617D01*
X042550Y019680D02*
X042550Y015680D01*
X048050Y015680D01*
X048050Y013460D01*
X050050Y013460D01*
X050130Y013435D02*
X051310Y013435D01*
X051215Y013380D02*
X050130Y013380D01*
X050130Y013540D01*
X049970Y013540D01*
X049970Y014135D01*
X049511Y014135D01*
X049423Y014123D01*
X049338Y014101D01*
X049256Y014067D01*
X049179Y014022D01*
X049109Y013969D01*
X049046Y013906D01*
X048993Y013836D01*
X048948Y013759D01*
X048914Y013677D01*
X048892Y013592D01*
X048885Y013540D01*
X049970Y013540D01*
X049970Y013380D01*
X050130Y013380D01*
X050130Y012785D01*
X050589Y012785D01*
X050677Y012797D01*
X050762Y012819D01*
X050844Y012853D01*
X050921Y012898D01*
X050991Y012951D01*
X051054Y013014D01*
X051107Y013084D01*
X051152Y013161D01*
X051186Y013243D01*
X051208Y013328D01*
X051215Y013380D01*
X051195Y013277D02*
X051310Y013277D01*
X051310Y013118D02*
X051127Y013118D01*
X050999Y012960D02*
X051310Y012960D01*
X051310Y012801D02*
X050694Y012801D01*
X050675Y012555D02*
X049425Y012555D01*
X049184Y012455D01*
X049000Y012271D01*
X048900Y012030D01*
X048900Y011920D01*
X047290Y011920D01*
X047290Y014728D01*
X047253Y014816D01*
X047186Y014883D01*
X047098Y014920D01*
X039904Y014920D01*
X039724Y015100D01*
X039376Y015100D01*
X039130Y014854D01*
X039130Y014506D01*
X039310Y014326D01*
X039310Y013534D01*
X039130Y013354D01*
X039130Y013006D01*
X039376Y012760D01*
X039724Y012760D01*
X039970Y013006D01*
X039970Y013354D01*
X039790Y013534D01*
X039790Y014326D01*
X039904Y014440D01*
X046810Y014440D01*
X046810Y011632D01*
X046847Y011544D01*
X046914Y011477D01*
X047002Y011440D01*
X049089Y011440D01*
X049184Y011345D01*
X049425Y011245D01*
X050675Y011245D01*
X050916Y011345D01*
X051100Y011529D01*
X051200Y011770D01*
X051200Y012030D01*
X051100Y012271D01*
X050916Y012455D01*
X050675Y012555D01*
X050847Y012484D02*
X051310Y012484D01*
X051310Y012326D02*
X051046Y012326D01*
X051143Y012167D02*
X051310Y012167D01*
X051310Y012009D02*
X051200Y012009D01*
X051200Y011850D02*
X051310Y011850D01*
X051310Y011692D02*
X051168Y011692D01*
X051102Y011533D02*
X051310Y011533D01*
X051310Y011375D02*
X050946Y011375D01*
X051247Y011216D02*
X046561Y011216D01*
X046600Y011375D02*
X049154Y011375D01*
X050050Y011680D02*
X050050Y011900D01*
X050050Y011680D02*
X047050Y011680D01*
X047050Y014680D01*
X039550Y014680D01*
X039550Y013180D01*
X039211Y013435D02*
X023290Y013435D01*
X023290Y013277D02*
X039130Y013277D01*
X039130Y013118D02*
X023290Y013118D01*
X023290Y012960D02*
X039177Y012960D01*
X039335Y012801D02*
X023290Y012801D01*
X023290Y012643D02*
X045715Y012643D01*
X045572Y012484D02*
X023290Y012484D01*
X023290Y012326D02*
X045507Y012326D01*
X045500Y012167D02*
X023290Y012167D01*
X023290Y013594D02*
X039310Y013594D01*
X039310Y013752D02*
X023290Y013752D01*
X023290Y013911D02*
X039310Y013911D01*
X039310Y014069D02*
X023290Y014069D01*
X023290Y014228D02*
X039310Y014228D01*
X039250Y014386D02*
X023290Y014386D01*
X023290Y014545D02*
X039130Y014545D01*
X039130Y014703D02*
X023290Y014703D01*
X023290Y014862D02*
X039138Y014862D01*
X039296Y015020D02*
X023290Y015020D01*
X023290Y015179D02*
X051310Y015179D01*
X051310Y015337D02*
X039829Y015337D01*
X039732Y015240D02*
X039990Y015498D01*
X039990Y015680D01*
X039990Y015862D01*
X039990Y015813D02*
X051310Y015813D01*
X051310Y015654D02*
X039990Y015654D01*
X039990Y015680D02*
X039550Y015680D01*
X042550Y015680D01*
X039990Y015680D02*
X039550Y015680D01*
X039550Y015680D01*
X039550Y015680D01*
X039550Y015240D01*
X039732Y015240D01*
X039550Y015240D02*
X039550Y015680D01*
X039550Y015680D01*
X039550Y015680D01*
X039110Y015680D01*
X039110Y015862D01*
X039368Y016120D01*
X039550Y016120D01*
X039550Y015680D01*
X039110Y015680D01*
X039110Y015498D01*
X039368Y015240D01*
X039550Y015240D01*
X039550Y015337D02*
X039550Y015337D01*
X039550Y015496D02*
X039550Y015496D01*
X039550Y015654D02*
X039550Y015654D01*
X039550Y015813D02*
X039550Y015813D01*
X039550Y015971D02*
X039550Y015971D01*
X039219Y015971D02*
X023290Y015971D01*
X023290Y015813D02*
X039110Y015813D01*
X039110Y015654D02*
X023290Y015654D01*
X023290Y015496D02*
X039112Y015496D01*
X039271Y015337D02*
X023290Y015337D01*
X022810Y018349D02*
X018970Y018349D01*
X018817Y018507D02*
X022810Y018507D01*
X023290Y018983D02*
X042619Y018983D01*
X042549Y019141D02*
X023290Y019141D01*
X023270Y019775D02*
X042530Y019775D01*
X042550Y019680D02*
X043100Y019680D01*
X043050Y019617D02*
X043150Y019617D01*
X043150Y019775D02*
X043050Y019775D01*
X043050Y019934D02*
X043150Y019934D01*
X043150Y020092D02*
X043050Y020092D01*
X043050Y020251D02*
X043150Y020251D01*
X043150Y020409D02*
X043050Y020409D01*
X043050Y020568D02*
X043150Y020568D01*
X043379Y020568D02*
X045814Y020568D01*
X045738Y020536D02*
X045584Y020382D01*
X045500Y020179D01*
X045529Y020251D02*
X043641Y020251D01*
X043558Y020409D02*
X045611Y020409D01*
X045738Y020536D02*
X045941Y020620D01*
X046159Y020620D01*
X046310Y020558D01*
X046310Y020760D01*
X046206Y020760D01*
X046052Y020824D01*
X045934Y020942D01*
X045870Y021096D01*
X045870Y021264D01*
X045934Y021418D01*
X046052Y021536D01*
X046134Y021570D01*
X043014Y021570D01*
X043041Y021556D01*
X043097Y021516D01*
X043146Y021467D01*
X043186Y021411D01*
X043218Y021349D01*
X043239Y021283D01*
X043250Y021215D01*
X043250Y021180D01*
X042550Y021180D01*
X042550Y019680D01*
X042530Y019934D02*
X012050Y019934D01*
X012050Y020092D02*
X042530Y020092D01*
X042559Y020251D02*
X012050Y020251D01*
X012050Y020409D02*
X042642Y020409D01*
X042821Y020568D02*
X012050Y020568D01*
X012050Y020726D02*
X046310Y020726D01*
X046310Y020568D02*
X046286Y020568D01*
X045992Y020885D02*
X043137Y020885D01*
X043146Y020893D02*
X043186Y020949D01*
X043218Y021011D01*
X043239Y021077D01*
X043250Y021145D01*
X043250Y021180D01*
X042550Y021180D01*
X042550Y021180D01*
X042550Y020740D01*
X042845Y020740D01*
X042913Y020751D01*
X042979Y020772D01*
X043041Y020804D01*
X043097Y020844D01*
X043146Y020893D01*
X043228Y021043D02*
X045892Y021043D01*
X045870Y021202D02*
X043250Y021202D01*
X043212Y021360D02*
X045910Y021360D01*
X046035Y021519D02*
X043093Y021519D01*
X042550Y021180D02*
X042550Y021180D01*
X042550Y021180D01*
X041850Y021180D01*
X041850Y021215D01*
X041861Y021283D01*
X041882Y021349D01*
X041914Y021411D01*
X041954Y021467D01*
X042003Y021516D01*
X042059Y021556D01*
X042086Y021570D01*
X012050Y021570D01*
X012050Y021519D02*
X042007Y021519D01*
X041888Y021360D02*
X012050Y021360D01*
X012050Y021202D02*
X041850Y021202D01*
X041850Y021180D02*
X041850Y021145D01*
X041861Y021077D01*
X041882Y021011D01*
X041914Y020949D01*
X041954Y020893D01*
X042003Y020844D01*
X042059Y020804D01*
X042121Y020772D01*
X042187Y020751D01*
X042255Y020740D01*
X042550Y020740D01*
X042550Y021180D01*
X041850Y021180D01*
X041872Y021043D02*
X012050Y021043D01*
X012050Y020885D02*
X041963Y020885D01*
X042550Y020885D02*
X042550Y020885D01*
X042550Y021043D02*
X042550Y021043D01*
X045738Y018824D02*
X045941Y018740D01*
X046159Y018740D01*
X046362Y018824D01*
X046550Y021180D02*
X050050Y021180D01*
X050050Y018960D01*
X050290Y019617D02*
X052050Y019617D01*
X052050Y019775D02*
X050290Y019775D01*
X050290Y019934D02*
X052050Y019934D01*
X052050Y020092D02*
X050290Y020092D01*
X050290Y020251D02*
X052050Y020251D01*
X052050Y020409D02*
X050290Y020409D01*
X050290Y020568D02*
X052050Y020568D01*
X052050Y020726D02*
X050290Y020726D01*
X050290Y020885D02*
X052050Y020885D01*
X052050Y021043D02*
X050290Y021043D01*
X050290Y021202D02*
X052050Y021202D01*
X052050Y021360D02*
X050209Y021360D01*
X052050Y021519D02*
X047065Y021519D01*
X050973Y019458D02*
X052050Y019458D01*
X052050Y019300D02*
X051113Y019300D01*
X051179Y019141D02*
X052050Y019141D01*
X052050Y018983D02*
X051200Y018983D01*
X051198Y018824D02*
X052050Y018824D01*
X052050Y018666D02*
X051132Y018666D01*
X051018Y018507D02*
X052050Y018507D01*
X052050Y018349D02*
X050780Y018349D01*
X051310Y015496D02*
X039988Y015496D01*
X039804Y015020D02*
X051310Y015020D01*
X051310Y014862D02*
X047208Y014862D01*
X047290Y014703D02*
X051310Y014703D01*
X051310Y014545D02*
X047290Y014545D01*
X047290Y014386D02*
X051310Y014386D01*
X051310Y014228D02*
X047290Y014228D01*
X047290Y014069D02*
X049261Y014069D01*
X049051Y013911D02*
X047290Y013911D01*
X047290Y013752D02*
X048945Y013752D01*
X048892Y013594D02*
X047290Y013594D01*
X047290Y013435D02*
X049970Y013435D01*
X049970Y013380D02*
X048885Y013380D01*
X048892Y013328D01*
X048914Y013243D01*
X048948Y013161D01*
X048993Y013084D01*
X049046Y013014D01*
X049109Y012951D01*
X049179Y012898D01*
X049256Y012853D01*
X049338Y012819D01*
X049423Y012797D01*
X049511Y012785D01*
X049970Y012785D01*
X049970Y013380D01*
X049970Y013277D02*
X050130Y013277D01*
X050130Y013118D02*
X049970Y013118D01*
X049970Y012960D02*
X050130Y012960D01*
X050130Y012801D02*
X049970Y012801D01*
X049406Y012801D02*
X047290Y012801D01*
X047290Y012643D02*
X051310Y012643D01*
X051215Y013540D02*
X050130Y013540D01*
X050130Y014135D01*
X050589Y014135D01*
X050677Y014123D01*
X050762Y014101D01*
X050844Y014067D01*
X050921Y014022D01*
X050991Y013969D01*
X051054Y013906D01*
X051107Y013836D01*
X051152Y013759D01*
X051186Y013677D01*
X051208Y013592D01*
X051215Y013540D01*
X051208Y013594D02*
X051310Y013594D01*
X051310Y013752D02*
X051155Y013752D01*
X051049Y013911D02*
X051310Y013911D01*
X051310Y014069D02*
X050839Y014069D01*
X050130Y014069D02*
X049970Y014069D01*
X049970Y013911D02*
X050130Y013911D01*
X050130Y013752D02*
X049970Y013752D01*
X049970Y013594D02*
X050130Y013594D01*
X049101Y012960D02*
X047290Y012960D01*
X047290Y013118D02*
X048973Y013118D01*
X048905Y013277D02*
X047290Y013277D01*
X046810Y013277D02*
X039970Y013277D01*
X039970Y013118D02*
X046810Y013118D01*
X046810Y012960D02*
X039923Y012960D01*
X039765Y012801D02*
X046810Y012801D01*
X046810Y012643D02*
X046385Y012643D01*
X046528Y012484D02*
X046810Y012484D01*
X046810Y012326D02*
X046593Y012326D01*
X046600Y012167D02*
X046810Y012167D01*
X046810Y012009D02*
X046600Y012009D01*
X046600Y011850D02*
X046810Y011850D01*
X046810Y011692D02*
X046600Y011692D01*
X046600Y011533D02*
X046858Y011533D01*
X046465Y011058D02*
X051088Y011058D01*
X048900Y012009D02*
X047290Y012009D01*
X047290Y012167D02*
X048957Y012167D01*
X049054Y012326D02*
X047290Y012326D01*
X047290Y012484D02*
X049253Y012484D01*
X046810Y013435D02*
X039889Y013435D01*
X039790Y013594D02*
X046810Y013594D01*
X046810Y013752D02*
X039790Y013752D01*
X039790Y013911D02*
X046810Y013911D01*
X046810Y014069D02*
X039790Y014069D01*
X039790Y014228D02*
X046810Y014228D01*
X046810Y014386D02*
X039850Y014386D01*
X039550Y011810D02*
X046050Y011810D01*
X045500Y011533D02*
X039790Y011533D01*
X039790Y011375D02*
X045500Y011375D01*
X039310Y011216D02*
X015790Y011216D01*
X015790Y011058D02*
X039310Y011058D01*
X039310Y010899D02*
X015790Y010899D01*
X015790Y010741D02*
X039310Y010741D01*
X039310Y010582D02*
X015769Y010582D01*
X015550Y010680D02*
X013550Y010680D01*
X013550Y013680D01*
X013130Y013752D02*
X012050Y013752D01*
X012050Y013594D02*
X013130Y013594D01*
X013201Y013435D02*
X012050Y013435D01*
X012050Y013277D02*
X013310Y013277D01*
X013310Y013118D02*
X012050Y013118D01*
X012050Y012960D02*
X013310Y012960D01*
X013310Y012801D02*
X012050Y012801D01*
X012050Y012643D02*
X013310Y012643D01*
X013310Y012484D02*
X012050Y012484D01*
X012050Y012326D02*
X013310Y012326D01*
X013187Y013911D02*
X012050Y013911D01*
X012050Y014069D02*
X013345Y014069D01*
X016290Y014069D02*
X016310Y014069D01*
X016310Y013911D02*
X016290Y013911D01*
X016290Y013752D02*
X016310Y013752D01*
X016310Y013594D02*
X016290Y013594D01*
X016290Y013435D02*
X016310Y013435D01*
X016310Y013277D02*
X016290Y013277D01*
X016290Y013118D02*
X016310Y013118D01*
X016310Y012960D02*
X016290Y012960D01*
X016290Y012801D02*
X016310Y012801D01*
X016310Y012643D02*
X016290Y012643D01*
X016290Y012484D02*
X016310Y012484D01*
X016310Y012326D02*
X016290Y012326D01*
X016290Y012167D02*
X016310Y012167D01*
X016290Y012009D02*
X016382Y012009D01*
X017840Y012484D02*
X018260Y012484D01*
X018130Y012326D02*
X017970Y012326D01*
X017970Y012167D02*
X018130Y012167D01*
X018130Y012009D02*
X017970Y012009D01*
X016310Y014228D02*
X016290Y014228D01*
X016290Y014386D02*
X016310Y014386D01*
X016310Y014545D02*
X016290Y014545D01*
X016290Y014703D02*
X016310Y014703D01*
X016310Y014862D02*
X016290Y014862D01*
X016290Y015020D02*
X016310Y015020D01*
X016310Y015179D02*
X016290Y015179D01*
X016290Y015337D02*
X016310Y015337D01*
X016310Y015496D02*
X016290Y015496D01*
X016290Y015654D02*
X016310Y015654D01*
X016310Y015813D02*
X016290Y015813D01*
X016290Y015971D02*
X016310Y015971D01*
X016310Y016130D02*
X016290Y016130D01*
X016290Y016288D02*
X016310Y016288D01*
X016310Y016447D02*
X016290Y016447D01*
X016290Y016605D02*
X016310Y016605D01*
X016310Y016764D02*
X016290Y016764D01*
X016290Y016922D02*
X016310Y016922D01*
X016310Y017081D02*
X016290Y017081D01*
X016290Y017239D02*
X016310Y017239D01*
X016310Y017398D02*
X016290Y017398D01*
X016290Y017556D02*
X016310Y017556D01*
X016310Y017715D02*
X016290Y017715D01*
X016290Y017873D02*
X016310Y017873D01*
X016310Y018032D02*
X016290Y018032D01*
X016290Y018190D02*
X016310Y018190D01*
X016310Y018349D02*
X016221Y018349D01*
X016310Y018507D02*
X015817Y018507D01*
X014310Y018666D02*
X012050Y018666D01*
X012050Y018824D02*
X014310Y018824D01*
X014310Y018983D02*
X012050Y018983D01*
X012050Y019141D02*
X014310Y019141D01*
X014283Y018507D02*
X012050Y018507D01*
X012050Y018349D02*
X014130Y018349D01*
X014130Y018190D02*
X012050Y018190D01*
X012050Y018032D02*
X014130Y018032D01*
X014263Y017873D02*
X012050Y017873D01*
X012050Y017715D02*
X014310Y017715D01*
X014310Y017556D02*
X012050Y017556D01*
X012050Y017398D02*
X014310Y017398D01*
X012050Y019617D02*
X017310Y019617D01*
X017330Y019775D02*
X012050Y019775D01*
X012050Y009314D02*
X052050Y009314D01*
M02*
