%
M48
M72
T01C0.0320
T02C0.0520
T03C0.0660
%
T01
X14550Y12180
X15550Y12180
X17550Y12180
X18550Y12180
X18550Y15180
X17550Y15180
X13550Y13680
X13550Y16680
X14550Y18180
X15550Y18180
X17550Y18180
X18550Y18180
X39550Y15680
X39550Y14680
X39550Y13180
X39550Y10180
X42550Y21180
X46550Y21180
T02
X46050Y19680
X43100Y19680
X46050Y11810
X43100Y10430
T03
X50050Y11900
X50050Y13460
X50050Y17400
X50050Y18960
M30
